<?xml version="1.0" encoding="UTF-8"?>
<svg xmlns="http://www.w3.org/2000/svg" id="a" data-name="Layer_1" viewBox="0 0 397.87 45.29">
  <defs>
    <style>      .b {        fill: #7d5a98;      }      .c {        fill: none;        stroke: #231f20;        stroke-miterlimit: 10;        stroke-width: 2.12px;      }      .d {        fill: #231f20;      }    </style>
  </defs>
  <g>
    <path class="d" d="M284.81,5.15v-.1c0-.89-.74-1.62-1.62-1.62h-7.2c-.89,0-1.62.73-1.62,1.62v.1c0,.89.73,1.62,1.62,1.62h6.39c1.65,0,3.12.71,4.13,1.83.08.08.12.15.2.23.79.96,1.27,2.21,1.27,3.55,0,3.09-2.51,5.61-5.6,5.61h-5.55c-3.1,0-5.61-2.51-5.61-5.61h3.17c0,1.35,1.09,2.44,2.44,2.44h5.55c1.34,0,2.46-1.09,2.46-2.44s-1.12-2.43-2.46-2.43h-6.39c-1.29,0-2.46-.51-3.32-1.35-.23-.23-.43-.48-.61-.76-.53-.76-.84-1.7-.84-2.71v-.1c0-2.64,2.13-4.79,4.77-4.79h7.2c2.64,0,4.79,2.16,4.79,4.79v.1l-3.17.03Z"></path>
    <polygon class="d" points="308.29 .23 308.29 17.99 305.12 17.99 305.12 6.67 302 9.06 299.41 11.06 296.82 9.06 293.7 6.67 293.7 17.99 290.53 17.99 290.53 .23 293.7 2.66 299.41 7.05 305.12 2.66 308.29 .23"></polygon>
    <polygon class="d" points="327.96 17.98 324.41 17.98 322.79 14.81 318.9 7.2 315.02 14.81 313.4 17.98 309.85 17.98 311.47 14.81 318.9 .23 326.34 14.81 327.96 17.98"></polygon>
    <path class="d" d="M343.82,14.84l1.62,3.17h-3.55l-1.62-3.17-1.7-3.32-.08-.15c-.56-.91-1.55-1.52-2.69-1.52h-3.17v8.17h-3.17V.25h11.21c1.32,0,2.51.53,3.38,1.39.86.89,1.39,2.08,1.39,3.4,0,1.93-1.14,3.6-2.79,4.36-.43.2-.89.33-1.37.38l2.54,5.05ZM340.68,6.67c.23,0,.46-.05.66-.15.58-.25.96-.84.96-1.47,0-.58-.3-.99-.48-1.17-.21-.2-.58-.46-1.14-.46h-8.04v3.27l8.04-.03Z"></path>
    <polygon class="d" points="364.92 .25 364.92 3.42 357.64 3.42 357.64 18.01 354.46 18.01 354.46 3.42 347.18 3.42 347.18 .25 364.92 .25"></polygon>
  </g>
  <g>
    <path class="d" d="M288.97,27.25v3.17h-12.96c-.89,0-1.62.73-1.62,1.62v1.65h11.42v3.17h-11.44v8.15h-3.15v-12.96c0-2.64,2.13-4.79,4.77-4.79h12.99Z"></path>
    <polygon class="d" points="304.71 45.01 301.16 45.01 299.54 41.84 295.65 34.23 291.77 41.84 290.15 45.01 286.6 45.01 288.22 41.84 295.65 27.25 303.09 41.84 304.71 45.01"></polygon>
    <path class="d" d="M306.93,36.13c0,3.15,2.56,5.71,5.71,5.71h8.88v3.17h-8.88c-4.9,0-8.88-3.98-8.88-8.88s3.98-8.88,8.88-8.88h8.88v3.17h-8.88c-3.15,0-5.71,2.56-5.71,5.71"></path>
    <polygon class="d" points="341.79 27.28 341.79 30.45 334.51 30.45 334.51 45.04 331.34 45.04 331.34 30.45 324.06 30.45 324.06 27.28 341.79 27.28"></polygon>
    <path class="d" d="M359.81,36.13c0,4.9-3.98,8.88-8.88,8.88s-8.88-3.98-8.88-8.88,3.98-8.88,8.88-8.88,8.88,3.98,8.88,8.88M356.64,36.13c0-3.15-2.56-5.71-5.71-5.71s-5.71,2.56-5.71,5.71,2.56,5.71,5.71,5.71,5.71-2.56,5.71-5.71"></path>
    <path class="d" d="M376.06,41.87l1.62,3.17h-3.55l-1.62-3.17-1.7-3.32-.08-.15c-.56-.91-1.55-1.52-2.69-1.52h-3.17v8.17h-3.17v-17.76h11.21c1.32,0,2.51.53,3.38,1.39.86.89,1.39,2.08,1.39,3.4,0,1.93-1.14,3.6-2.79,4.36-.43.2-.89.33-1.37.38l2.54,5.05ZM372.91,33.7c.23,0,.46-.05.66-.15.58-.25.96-.84.96-1.47,0-.58-.3-.99-.48-1.17-.21-.2-.58-.46-1.14-.46h-8.04v3.27l8.04-.03Z"></path>
    <path class="d" d="M378.12,45.01h.05l-.05.05v-.05ZM395.88,27.23l-6.88,8.9-.38.48v8.37h-3.17v-8.32l-.43-.53-6.87-8.9h4.01l4.87,6.32,4.87-6.32h3.98ZM395.85,45.01h.03v.05l-.03-.05Z"></path>
  </g>
  <g>
    <polygon class="b" points="14.68 16.86 27.63 16.86 14.87 45.01 1.99 45.01 14.68 16.86"></polygon>
    <path class="d" d="M53.33,10.06H17.86L22.26.23h42.86c1.99,0,3.55.44,4.69,1.32,1.14.88,1.7,2.1,1.7,3.64,0,.37-.07.8-.2,1.28-.13.47-.32.98-.56,1.51l-16.83,37.03h-12.95l14.54-31.97c.04-.11.09-.25.13-.41s.07-.32.07-.45c0-.6-.23-1.1-.68-1.51-.45-.41-1.02-.61-1.7-.61"></path>
    <polygon class="b" points="34.35 16.86 47.1 16.86 34.42 45.01 21.66 45.01 34.35 16.86"></polygon>
    <path class="d" d="M84.83.23h21.3c1.55,0,2.77.41,3.66,1.22.89.82,1.34,1.93,1.34,3.35,0,.38-.02.73-.07,1.06-.05.33-.11.65-.2.96l-11.13,38.19h-42.73l23.35-28.15h13.35l-13.91,18.32h9.64l7.12-22.79s.01-.05.03-.1c.07-.29.1-.53.1-.73,0-.44-.17-.8-.5-1.08-.33-.27-.77-.41-1.33-.41h-14.37L84.83.23Z"></path>
    <polygon class="d" points="135.25 16.86 122.49 45.01 109.51 45.01 122.26 16.86 135.25 16.86"></polygon>
    <polygon class="d" points="148.53 10.06 113.88 10.06 118.35 .23 153 .23 148.53 10.06"></polygon>
    <path class="d" d="M163.14,29.34c.07-.13.12-.27.15-.43.03-.16.05-.31.05-.47,0-.57-.23-1.06-.68-1.47-.45-.41-1.02-.61-1.71-.61h-3.25l-8.61,18.65h-12.95l12.69-27.82h20.01l1.82-4.27c.07-.16.11-.32.15-.48.03-.16.05-.34.05-.51,0-.57-.22-1.05-.65-1.42-.43-.37-1-.56-1.7-.56h-16.43L156.48.23h23.49c1.99,0,3.54.44,4.67,1.33,1.13.88,1.69,2.1,1.69,3.64,0,.4-.06.83-.18,1.29s-.3.96-.55,1.49l-6.86,15.2c-.6,1.28-1.34,2.19-2.22,2.72-.88.53-2.11.8-3.68.8h-.43c.77.49,1.35,1.07,1.74,1.74.39.67.58,1.43.58,2.27,0,.4-.07.85-.2,1.34-.13.49-.32,1-.56,1.51l-5.2,11.46h-12.62l6.99-15.67Z"></path>
    <polygon class="d" points="210.27 .23 189.93 45.01 176.98 45.01 197.32 .23 210.27 .23"></polygon>
    <path class="d" d="M222.1,31.93l-6.2,8.28c-1.24,1.66-2.85,2.87-4.84,3.64-1.99.77-4.51,1.16-7.55,1.16h-7.42l4.51-9.84h2.15c1.43,0,2.68-.22,3.74-.65,1.06-.43,1.92-1.08,2.58-1.94l9.21-12.06L211.56.23h11.96l3.11,10.8,4.34-6.72c.91-1.39,2.08-2.42,3.53-3.08,1.44-.66,3.27-.99,5.48-.99h9.18l-4.47,9.84h-1.16c-1.52,0-2.8.22-3.84.65-1.04.43-1.87,1.08-2.49,1.94l-6.49,9.31,7.59,23.05h-11.99l-4.21-13.08Z"></path>
  </g>
  <line class="c" x1="260.18" y1=".23" x2="260.18" y2="44.98"></line>
</svg>
